<svg xmlns="http://www.w3.org/2000/svg" aria-hidden="true" style="position:absolute;width:0;height:0;overflow:hidden"><defs><symbol id="icon-arrow" viewBox="0 0 34 32"><path fill="#fff" d="M16.587 0q-.724-.017-1.236.498c-.512.515-.511.761-.51 1.256l.064 28.063q.002.742.515 1.254c.513.512.755.511 1.238.51q.724-.002 1.236-.515c.512-.513.511-.761.51-1.256L18.34 1.747q-.002-.743-.515-1.254c-.513-.511-.755-.505-1.238-.492zM.501 13.751q-.512.513-.501 1.247c.011.734.182.904.524 1.245L15.42 31.071q.513.511 1.238.51c.725-.001.895-.173 1.236-.515L32.722 16.17q.512-.513.51-1.238c-.002-.725-.173-.895-.515-1.236s-.755-.511-1.238-.51a1.7 1.7 0 0 0-1.236.515L16.649 27.357 2.993 13.763q-.513-.512-1.247-.518c-.734-.006-.904.164-1.245.506" style="fill:var(--color1, #fff)"/></symbol><symbol id="icon-close" viewBox="0 0 32 32"><path fill="#fff" d="m16 18.829 7.071 7.071a2.001 2.001 0 0 0 2.83-2.83l-7.073-7.071L25.9 8.928a2 2 0 0 0 .585-1.414 2 2 0 0 0-.586-1.414 2 2 0 0 0-1.414-.585 2 2 0 0 0-1.414.586l-7.069 7.071-7.071-7.071a2 2 0 1 0-2.829 2.827L13.175 16l-7.072 7.072a2 2 0 0 0-.61 1.421 2.004 2.004 0 0 0 2.018 2.018 2 2 0 0 0 1.421-.612z" style="fill:var(--color1, #fff)"/></symbol><symbol id="icon-menu" viewBox="0 0 32 32"><path fill="#fdfff6" d="M4 24h24v-2.667H4zm0-6.667h24v-2.667H4zM4 8v2.667h24V8z" style="fill:var(--color2, #fdfff6)"/></symbol></defs></svg>